<?xml version="1.0" encoding="utf-8"?>
<!-- Generator: Adobe Illustrator 19.2.1, SVG Export Plug-In . SVG Version: 6.00 Build 0)  -->
<svg version="1.1" id="Layer_1" xmlns="http://www.w3.org/2000/svg" xmlns:xlink="http://www.w3.org/1999/xlink" x="0px" y="0px"
	 viewBox="0 0 108 108" style="enable-background:new 0 0 108 108;" xml:space="preserve">
<style type="text/css">
	.st0{fill:url(#skyGradient);}
</style>
<path class="st0" d="M74,60.3L74,60.3l-0.6-2.1c-0.1-0.2-0.2-0.5-0.3-0.7L61.3,24.1l-7.6,10l4,10.9c-1.3-0.3-2.7-0.4-4.1-0.4
	c-11.8,0-21.4,9.6-21.4,21.4s9.6,21.4,21.4,21.4s21.4-9.6,21.4-21.4C74.9,64,74.5,62.1,74,60.3z M53.5,77.1c-6.2,0-11.2-5-11.2-11.2
	s5-11.2,11.2-11.2c4.5,0,8.4,2.7,10.2,6.6l0.3,0.8c0.4,1.2,0.7,2.4,0.7,3.7C64.7,72.1,59.7,77.1,53.5,77.1z"/>
<path class="st0" d="M85.3,52.1l-7.8,9.8c0.3,1.4,0.4,2.8,0.4,4.1c0,14.2-12.2,25.7-26.7,24.3C45.6,89.8,40.2,87,36,83.2
	c-2.9-2.6-7.6-8.8-6.9-19.2c0.8-12.5,14.5-23.8,25-38l4.7-6.6L55.2,7.2L46,19.9C31.1,40,15,53.4,20.3,75.1
	c3.6,15,16.3,24.4,30.6,25.5C71.2,102.1,88.2,86,88.2,66C88.2,61.5,87.4,57.5,85.3,52.1z"/>

<defs>
        <linearGradient id="skyGradient" x1="100%" y1="100%">
          <stop offset="0%" stop-color="#06668E" stop-opacity=".5">
            <animate attributeName="stop-color" values="#06668E;#038090;#00A896;#30B996;#00A896;#038090;#06668E;" dur="8s" repeatCount="indefinite" />
          </stop>
        </linearGradient>
</defs>

</svg>
