<?xml version="1.0" encoding="utf-8"?>
<!-- Generator: Adobe Illustrator 19.2.1, SVG Export Plug-In . SVG Version: 6.00 Build 0)  -->
<svg version="1.1" id="Layer_1" xmlns="http://www.w3.org/2000/svg" xmlns:xlink="http://www.w3.org/1999/xlink" x="0px" y="0px"
	 viewBox="0 0 108 108" style="enable-background:new 0 0 108 108;" xml:space="preserve">
<style type="text/css">
	.st0{fill:none;stroke:#20A2DC;stroke-width:1.5;stroke-miterlimit:10;}
	.st1{fill:none;stroke:#414142;stroke-width:1.5;stroke-linecap:round;stroke-linejoin:round;stroke-miterlimit:10;}
	.st2{fill:#414142;}
	

	.st3{fill:none;stroke:#FAC044;stroke-width:1.5;stroke-linecap:square;stroke-miterlimit:10;
				stroke-dasharray:200;
				stroke-dashoffset:0;
				-webkit-animation: dash2 2s linear forwards;
				-o-animation: dash2 4s linear forwards;
				-moz-animation: dash2 4s linear forwards;
				animate: dash2 4s linear forwards;
				/*animation-iteration-count:infinite;*/
				animate-delay:0;
				mix-blend-mode: multiply;
				transition: transform 500ms linear;
			
			}
				@-webkit-keyframes dash2 {
					from {
						stroke-dashoffset: 250;
					}
					to{
						stroke-dashoffset:10;
					}
				}	
	.st4{fill:none;stroke:#D45251;
	stroke-width:1.5;
	stroke-linecap:square;
	stroke-miterlimit:10; 
	stroke-dasharray:200;
				stroke-dashoffset:0;
				-webkit-animation: dash2 3s linear forwards;
				-o-animation: dash2 4s linear forwards;
				-moz-animation: dash2 4s linear forwards;
				animate: dash2 4s linear forwards;
				/*animation-iteration-count:infinite;*/
				animate-delay:0;
				mix-blend-mode: multiply;
				transition: transform 500ms linear;
			
			}
				@-webkit-keyframes dash2 {
					from {
						stroke-dashoffset: 250;
					}
					to{
						stroke-dashoffset:10;
					}
				}	
	.st5{fill:none;stroke:#20A2DC;stroke-width:1.5;stroke-linecap:square;stroke-miterlimit:10;
	stroke-dasharray:200;
				stroke-dashoffset:0;
				-webkit-animation: dash2 3s linear forwards;
				-o-animation: dash2 4s linear forwards;
				-moz-animation: dash2 4s linear forwards;
				animate: dash2 4s linear forwards;
				/*animation-iteration-count:infinite;*/
				animate-delay:0;
				mix-blend-mode: multiply;
				transition: transform 200ms linear;
				transition: transform 500ms ease-in;
			
			}
				@-webkit-keyframes dash2 {
					from {
						stroke-dashoffset: 250;
					}
					to{
						stroke-dashoffset:10;
					}
				}	


</style>
<line class="st0" x1="88.4" y1="34.7" x2="88.4" y2="100.5"/>
<line class="st0" x1="88.4" y1="14.5" x2="88.4" y2="31.5"/>
<line class="st0" x1="88.4" y1="7.3" x2="88.4" y2="11.5"/>
<line class="st0" x1="18.7" y1="80.3" x2="18.7" y2="7.3"/>
<line class="st0" x1="18.7" y1="100.5" x2="18.8" y2="83.5"/>
<line class="st0" x1="4.4" y1="26.3" x2="103" y2="26.3"/>
<path class="st1" d="M92.4,89.1c0,1.7-1.4,3.1-3.1,3.1H18.1c-1.7,0-3.1-1.4-3.1-3.1V22c0-1.7,1.4-3.1,3.1-3.1h71.1
	c1.7,0,3.1,1.4,3.1,3.1v67.1H92.4z"/>
<circle class="st2" cx="20.5" cy="22.6" r="1.8"/>
<circle class="st2" cx="25.9" cy="22.6" r="1.8"/>
<circle class="st2" cx="31.3" cy="22.6" r="1.8"/>
<g>
	<line class="st3" x1="23" y1="35.9" x2="48.5" y2="35.9"/>
	<line class="st4" x1="53.2" y1="35.9" x2="64.3" y2="35.9"/>
	<line class="st5" x1="29.7" y1="41.7" x2="81.9" y2="41.7"/>
	<line class="st5" x1="29.7" y1="48" x2="81.9" y2="48"/>
	<line class="st3" x1="23" y1="54.7" x2="41.8" y2="54.7"/>
</g>
<g>
	<line class="st4" x1="30.1" y1="60.5" x2="82.3" y2="60.5"/>
	<line class="st5" x1="30.1" y1="66.8" x2="82.3" y2="66.8"/>
	<line class="st3" x1="23.4" y1="73.5" x2="42.3" y2="73.5"/>
</g>
</svg>
